# xmcd
#
# Track frame offsets:
#	150
#	11899
#	26856
#	41046
#	52119
#	65938
#	86587
#	98893
#	116155
#	126999
#	140142
#	155667
#	169103
#	183111
#
# Disc length: 2519 seconds
#
# Revision: 0
# Processed by: cddbd v1.5.1PL0 Copyright (c) Steve Scherf et al.
# Submitted via: audiograbber 1.82.02
#
DISCID=d509d50e
DTITLE=Roll's Boys - Bartender's Blues
DYEAR=1900
DGENRE=
TTITLE0=Old Fashioned Preacher
TTITLE1=I'll Never Love Another
TTITLE2=I Wish You Knew
TTITLE3=Limehouse Blues
TTITLE4=Streets Of Baltimore
TTITLE5=Blue Virginia Blues
TTITLE6=Jealous
TTITLE7=Blues Man
TTITLE8=Follow The Leader
TTITLE9=Bartender's Blues
TTITLE10=Willie Roy The Cripple Boy
TTITLE11=Brand New House
TTITLE12=Ole Slew Foot
TTITLE13=Bonus - Cuckoo's Nest
EXTD=
EXTT0=
EXTT1=
EXTT2=
EXTT3=
EXTT4=
EXTT5=
EXTT6=
EXTT7=
EXTT8=
EXTT9=
EXTT10=
EXTT11=
EXTT12=
EXTT13=
PLAYORDER=
